<?xml version="1.0" encoding="UTF-8" standalone="no"?>
<!DOCTYPE svg PUBLIC "-//W3C//DTD SVG 1.1//EN"
 "http://www.w3.org/Graphics/SVG/1.1/DTD/svg11.dtd">
<!-- Generated by graphviz version 2.43.0 (0)
 -->
<!-- Title: BackendLearningPath Pages: 1 -->
<svg width="2455pt" height="76pt"
 viewBox="0.00 0.00 2455.00 76.00" xmlns="http://www.w3.org/2000/svg" xmlns:xlink="http://www.w3.org/1999/xlink">
<g id="graph0" class="graph" transform="scale(1 1) rotate(0) translate(4 72)">
<title>BackendLearningPath</title>
<polygon fill="#343541" stroke="transparent" points="-4,4 -4,-72 2451,-72 2451,4 -4,4"/>
<!-- BasicProgramming -->
<g id="node1" class="node">
<title>BasicProgramming</title>
<path fill="#aec6cf" stroke="grey" d="M227,-68C227,-68 12,-68 12,-68 6,-68 0,-62 0,-56 0,-56 0,-12 0,-12 0,-6 6,0 12,0 12,0 227,0 227,0 233,0 239,-6 239,-12 239,-12 239,-56 239,-56 239,-62 233,-68 227,-68"/>
<text text-anchor="middle" x="119.5" y="-52.8" font-family="Helvetica,sans-Serif" font-size="14.00" fill="#343541">1. Basic Programming Concepts</text>
<text text-anchor="middle" x="119.5" y="-37.8" font-family="Helvetica,sans-Serif" font-size="14.00" fill="#343541">&#45; Backend languages</text>
<text text-anchor="middle" x="119.5" y="-22.8" font-family="Helvetica,sans-Serif" font-size="14.00" fill="#343541">&#45; Data Structures &amp; Algorithms</text>
<text text-anchor="middle" x="119.5" y="-7.8" font-family="Helvetica,sans-Serif" font-size="14.00" fill="#343541">&#45; OOP</text>
</g>
<!-- WebHTTP -->
<g id="node2" class="node">
<title>WebHTTP</title>
<path fill="#aec6cf" stroke="grey" d="M396,-60.5C396,-60.5 287,-60.5 287,-60.5 281,-60.5 275,-54.5 275,-48.5 275,-48.5 275,-19.5 275,-19.5 275,-13.5 281,-7.5 287,-7.5 287,-7.5 396,-7.5 396,-7.5 402,-7.5 408,-13.5 408,-19.5 408,-19.5 408,-48.5 408,-48.5 408,-54.5 402,-60.5 396,-60.5"/>
<text text-anchor="middle" x="341.5" y="-45.3" font-family="Helvetica,sans-Serif" font-size="14.00" fill="#343541">2. Web &amp; HTTP</text>
<text text-anchor="middle" x="341.5" y="-30.3" font-family="Helvetica,sans-Serif" font-size="14.00" fill="#343541">&#45; HTTP Methods</text>
<text text-anchor="middle" x="341.5" y="-15.3" font-family="Helvetica,sans-Serif" font-size="14.00" fill="#343541">&#45; REST, GraphQL</text>
</g>
<!-- BasicProgramming&#45;&gt;WebHTTP -->
<g id="edge1" class="edge">
<title>BasicProgramming&#45;&gt;WebHTTP</title>
<path fill="none" stroke="#aaaaaa" d="M239.19,-34C247.92,-34 256.58,-34 264.94,-34"/>
<polygon fill="#aaaaaa" stroke="#aaaaaa" points="264.98,-37.5 274.98,-34 264.98,-30.5 264.98,-37.5"/>
</g>
<!-- DatabaseManagement -->
<g id="node3" class="node">
<title>DatabaseManagement</title>
<path fill="#b4d7a8" stroke="grey" d="M627,-60.5C627,-60.5 456,-60.5 456,-60.5 450,-60.5 444,-54.5 444,-48.5 444,-48.5 444,-19.5 444,-19.5 444,-13.5 450,-7.5 456,-7.5 456,-7.5 627,-7.5 627,-7.5 633,-7.5 639,-13.5 639,-19.5 639,-19.5 639,-48.5 639,-48.5 639,-54.5 633,-60.5 627,-60.5"/>
<text text-anchor="middle" x="541.5" y="-45.3" font-family="Helvetica,sans-Serif" font-size="14.00" fill="#343541">3. Database Management</text>
<text text-anchor="middle" x="541.5" y="-30.3" font-family="Helvetica,sans-Serif" font-size="14.00" fill="#343541">&#45; SQL/NoSQL</text>
<text text-anchor="middle" x="541.5" y="-15.3" font-family="Helvetica,sans-Serif" font-size="14.00" fill="#343541">&#45; ORM</text>
</g>
<!-- WebHTTP&#45;&gt;DatabaseManagement -->
<g id="edge2" class="edge">
<title>WebHTTP&#45;&gt;DatabaseManagement</title>
<path fill="none" stroke="#aaaaaa" d="M408.16,-34C416.41,-34 425.01,-34 433.7,-34"/>
<polygon fill="#aaaaaa" stroke="#aaaaaa" points="433.91,-37.5 443.91,-34 433.91,-30.5 433.91,-37.5"/>
</g>
<!-- Frameworks -->
<g id="node4" class="node">
<title>Frameworks</title>
<path fill="#fed8b1" stroke="grey" d="M816,-68C816,-68 687,-68 687,-68 681,-68 675,-62 675,-56 675,-56 675,-12 675,-12 675,-6 681,0 687,0 687,0 816,0 816,0 822,0 828,-6 828,-12 828,-12 828,-56 828,-56 828,-62 822,-68 816,-68"/>
<text text-anchor="middle" x="751.5" y="-52.8" font-family="Helvetica,sans-Serif" font-size="14.00" fill="#343541">4. Web Frameworks</text>
<text text-anchor="middle" x="751.5" y="-37.8" font-family="Helvetica,sans-Serif" font-size="14.00" fill="#343541">&#45; Express.js</text>
<text text-anchor="middle" x="751.5" y="-22.8" font-family="Helvetica,sans-Serif" font-size="14.00" fill="#343541">&#45; Django/Flask</text>
<text text-anchor="middle" x="751.5" y="-7.8" font-family="Helvetica,sans-Serif" font-size="14.00" fill="#343541">&#45; Spring Boot</text>
</g>
<!-- DatabaseManagement&#45;&gt;Frameworks -->
<g id="edge3" class="edge">
<title>DatabaseManagement&#45;&gt;Frameworks</title>
<path fill="none" stroke="#aaaaaa" d="M639.19,-34C647.72,-34 656.3,-34 664.73,-34"/>
<polygon fill="#aaaaaa" stroke="#aaaaaa" points="664.91,-37.5 674.91,-34 664.91,-30.5 664.91,-37.5"/>
</g>
<!-- VersionControl -->
<g id="node5" class="node">
<title>VersionControl</title>
<path fill="#fed8b1" stroke="grey" d="M1103,-53C1103,-53 876,-53 876,-53 870,-53 864,-47 864,-41 864,-41 864,-27 864,-27 864,-21 870,-15 876,-15 876,-15 1103,-15 1103,-15 1109,-15 1115,-21 1115,-27 1115,-27 1115,-41 1115,-41 1115,-47 1109,-53 1103,-53"/>
<text text-anchor="middle" x="989.5" y="-37.8" font-family="Helvetica,sans-Serif" font-size="14.00" fill="#343541">5. Version Control &amp; Collaboration</text>
<text text-anchor="middle" x="989.5" y="-22.8" font-family="Helvetica,sans-Serif" font-size="14.00" fill="#343541">&#45; Git, GitHub, GitLab</text>
</g>
<!-- Frameworks&#45;&gt;VersionControl -->
<g id="edge4" class="edge">
<title>Frameworks&#45;&gt;VersionControl</title>
<path fill="none" stroke="#aaaaaa" d="M828.15,-34C836.38,-34 844.94,-34 853.62,-34"/>
<polygon fill="#aaaaaa" stroke="#aaaaaa" points="853.85,-37.5 863.85,-34 853.85,-30.5 853.85,-37.5"/>
</g>
<!-- Security -->
<g id="node6" class="node">
<title>Security</title>
<path fill="#f4c2c2" stroke="grey" d="M1352,-60.5C1352,-60.5 1163,-60.5 1163,-60.5 1157,-60.5 1151,-54.5 1151,-48.5 1151,-48.5 1151,-19.5 1151,-19.5 1151,-13.5 1157,-7.5 1163,-7.5 1163,-7.5 1352,-7.5 1352,-7.5 1358,-7.5 1364,-13.5 1364,-19.5 1364,-19.5 1364,-48.5 1364,-48.5 1364,-54.5 1358,-60.5 1352,-60.5"/>
<text text-anchor="middle" x="1257.5" y="-45.3" font-family="Helvetica,sans-Serif" font-size="14.00" fill="#343541">6. Authentication &amp; Security</text>
<text text-anchor="middle" x="1257.5" y="-30.3" font-family="Helvetica,sans-Serif" font-size="14.00" fill="#343541">&#45; JWT, OAuth2</text>
<text text-anchor="middle" x="1257.5" y="-15.3" font-family="Helvetica,sans-Serif" font-size="14.00" fill="#343541">&#45; HTTPS</text>
</g>
<!-- VersionControl&#45;&gt;Security -->
<g id="edge5" class="edge">
<title>VersionControl&#45;&gt;Security</title>
<path fill="none" stroke="#aaaaaa" d="M1115.32,-34C1123.77,-34 1132.26,-34 1140.65,-34"/>
<polygon fill="#aaaaaa" stroke="#aaaaaa" points="1140.84,-37.5 1150.84,-34 1140.84,-30.5 1140.84,-37.5"/>
</g>
<!-- DevTools -->
<g id="node7" class="node">
<title>DevTools</title>
<path fill="#cdb4db" stroke="grey" d="M1531,-68C1531,-68 1412,-68 1412,-68 1406,-68 1400,-62 1400,-56 1400,-56 1400,-12 1400,-12 1400,-6 1406,0 1412,0 1412,0 1531,0 1531,0 1537,0 1543,-6 1543,-12 1543,-12 1543,-56 1543,-56 1543,-62 1537,-68 1531,-68"/>
<text text-anchor="middle" x="1471.5" y="-52.8" font-family="Helvetica,sans-Serif" font-size="14.00" fill="#343541">7. Developer Tools</text>
<text text-anchor="middle" x="1471.5" y="-37.8" font-family="Helvetica,sans-Serif" font-size="14.00" fill="#343541">&#45; Docker</text>
<text text-anchor="middle" x="1471.5" y="-22.8" font-family="Helvetica,sans-Serif" font-size="14.00" fill="#343541">&#45; Kubernetes</text>
<text text-anchor="middle" x="1471.5" y="-7.8" font-family="Helvetica,sans-Serif" font-size="14.00" fill="#343541">&#45; CI/CD</text>
</g>
<!-- Security&#45;&gt;DevTools -->
<g id="edge6" class="edge">
<title>Security&#45;&gt;DevTools</title>
<path fill="none" stroke="#aaaaaa" d="M1364.19,-34C1372.82,-34 1381.45,-34 1389.85,-34"/>
<polygon fill="#aaaaaa" stroke="#aaaaaa" points="1389.97,-37.5 1399.97,-34 1389.97,-30.5 1389.97,-37.5"/>
</g>
<!-- CloudDeployment -->
<g id="node8" class="node">
<title>CloudDeployment</title>
<path fill="#cdb4db" stroke="grey" d="M1746,-60.5C1746,-60.5 1591,-60.5 1591,-60.5 1585,-60.5 1579,-54.5 1579,-48.5 1579,-48.5 1579,-19.5 1579,-19.5 1579,-13.5 1585,-7.5 1591,-7.5 1591,-7.5 1746,-7.5 1746,-7.5 1752,-7.5 1758,-13.5 1758,-19.5 1758,-19.5 1758,-48.5 1758,-48.5 1758,-54.5 1752,-60.5 1746,-60.5"/>
<text text-anchor="middle" x="1668.5" y="-45.3" font-family="Helvetica,sans-Serif" font-size="14.00" fill="#343541">8. Deployment &amp; Cloud</text>
<text text-anchor="middle" x="1668.5" y="-30.3" font-family="Helvetica,sans-Serif" font-size="14.00" fill="#343541">&#45; AWS, GCP, Azure</text>
<text text-anchor="middle" x="1668.5" y="-15.3" font-family="Helvetica,sans-Serif" font-size="14.00" fill="#343541">&#45; Heroku</text>
</g>
<!-- DevTools&#45;&gt;CloudDeployment -->
<g id="edge7" class="edge">
<title>DevTools&#45;&gt;CloudDeployment</title>
<path fill="none" stroke="#aaaaaa" d="M1543.18,-34C1551.48,-34 1560.06,-34 1568.66,-34"/>
<polygon fill="#aaaaaa" stroke="#aaaaaa" points="1568.75,-37.5 1578.75,-34 1568.75,-30.5 1568.75,-37.5"/>
</g>
<!-- Scalability -->
<g id="node9" class="node">
<title>Scalability</title>
<path fill="#fdfd96" stroke="grey" d="M1995,-68C1995,-68 1806,-68 1806,-68 1800,-68 1794,-62 1794,-56 1794,-56 1794,-12 1794,-12 1794,-6 1800,0 1806,0 1806,0 1995,0 1995,0 2001,0 2007,-6 2007,-12 2007,-12 2007,-56 2007,-56 2007,-62 2001,-68 1995,-68"/>
<text text-anchor="middle" x="1900.5" y="-52.8" font-family="Helvetica,sans-Serif" font-size="14.00" fill="#343541">9. Scalability &amp; Performance</text>
<text text-anchor="middle" x="1900.5" y="-37.8" font-family="Helvetica,sans-Serif" font-size="14.00" fill="#343541">&#45; Caching</text>
<text text-anchor="middle" x="1900.5" y="-22.8" font-family="Helvetica,sans-Serif" font-size="14.00" fill="#343541">&#45; Load Balancing</text>
<text text-anchor="middle" x="1900.5" y="-7.8" font-family="Helvetica,sans-Serif" font-size="14.00" fill="#343541">&#45; Microservices</text>
</g>
<!-- CloudDeployment&#45;&gt;Scalability -->
<g id="edge8" class="edge">
<title>CloudDeployment&#45;&gt;Scalability</title>
<path fill="none" stroke="#aaaaaa" d="M1758.1,-34C1766.46,-34 1775.03,-34 1783.6,-34"/>
<polygon fill="#aaaaaa" stroke="#aaaaaa" points="1783.65,-37.5 1793.65,-34 1783.65,-30.5 1783.65,-37.5"/>
</g>
<!-- Projects -->
<g id="node10" class="node">
<title>Projects</title>
<path fill="#b4d7a8" stroke="grey" d="M2200,-60.5C2200,-60.5 2055,-60.5 2055,-60.5 2049,-60.5 2043,-54.5 2043,-48.5 2043,-48.5 2043,-19.5 2043,-19.5 2043,-13.5 2049,-7.5 2055,-7.5 2055,-7.5 2200,-7.5 2200,-7.5 2206,-7.5 2212,-13.5 2212,-19.5 2212,-19.5 2212,-48.5 2212,-48.5 2212,-54.5 2206,-60.5 2200,-60.5"/>
<text text-anchor="middle" x="2127.5" y="-45.3" font-family="Helvetica,sans-Serif" font-size="14.00" fill="#343541">10. Hands&#45;on Projects</text>
<text text-anchor="middle" x="2127.5" y="-30.3" font-family="Helvetica,sans-Serif" font-size="14.00" fill="#343541">&#45; Build API</text>
<text text-anchor="middle" x="2127.5" y="-15.3" font-family="Helvetica,sans-Serif" font-size="14.00" fill="#343541">&#45; Deploy to cloud</text>
</g>
<!-- Scalability&#45;&gt;Projects -->
<g id="edge9" class="edge">
<title>Scalability&#45;&gt;Projects</title>
<path fill="none" stroke="#aaaaaa" d="M2007.08,-34C2015.61,-34 2024.18,-34 2032.61,-34"/>
<polygon fill="#aaaaaa" stroke="#aaaaaa" points="2032.82,-37.5 2042.82,-34 2032.82,-30.5 2032.82,-37.5"/>
</g>
<!-- DevOps -->
<g id="node11" class="node">
<title>DevOps</title>
<path fill="#f4c2c2" stroke="grey" d="M2435,-60.5C2435,-60.5 2260,-60.5 2260,-60.5 2254,-60.5 2248,-54.5 2248,-48.5 2248,-48.5 2248,-19.5 2248,-19.5 2248,-13.5 2254,-7.5 2260,-7.5 2260,-7.5 2435,-7.5 2435,-7.5 2441,-7.5 2447,-13.5 2447,-19.5 2447,-19.5 2447,-48.5 2447,-48.5 2447,-54.5 2441,-60.5 2435,-60.5"/>
<text text-anchor="middle" x="2347.5" y="-45.3" font-family="Helvetica,sans-Serif" font-size="14.00" fill="#343541">11. DevOps &amp; Automation</text>
<text text-anchor="middle" x="2347.5" y="-30.3" font-family="Helvetica,sans-Serif" font-size="14.00" fill="#343541">&#45; CI/CD Pipelines</text>
<text text-anchor="middle" x="2347.5" y="-15.3" font-family="Helvetica,sans-Serif" font-size="14.00" fill="#343541">&#45; Infrastructure as Code</text>
</g>
<!-- Projects&#45;&gt;DevOps -->
<g id="edge10" class="edge">
<title>Projects&#45;&gt;DevOps</title>
<path fill="none" stroke="#aaaaaa" d="M2212.16,-34C2220.53,-34 2229.11,-34 2237.7,-34"/>
<polygon fill="#aaaaaa" stroke="#aaaaaa" points="2237.76,-37.5 2247.76,-34 2237.76,-30.5 2237.76,-37.5"/>
</g>
</g>
</svg>
