<?xml version="1.0" encoding="UTF-8" standalone="no"?>
<!DOCTYPE svg PUBLIC "-//W3C//DTD SVG 1.1//EN"
 "http://www.w3.org/Graphics/SVG/1.1/DTD/svg11.dtd">
<!-- Generated by graphviz version 2.43.0 (0)
 -->
<!-- Title: BackendToDataEngineerPath Pages: 1 -->
<svg width="2416pt" height="76pt"
 viewBox="0.00 0.00 2416.00 76.00" xmlns="http://www.w3.org/2000/svg" xmlns:xlink="http://www.w3.org/1999/xlink">
<g id="graph0" class="graph" transform="scale(1 1) rotate(0) translate(4 72)">
<title>BackendToDataEngineerPath</title>
<polygon fill="#343541" stroke="transparent" points="-4,4 -4,-72 2412,-72 2412,4 -4,4"/>
<!-- BackendKnowledge -->
<g id="node1" class="node">
<title>BackendKnowledge</title>
<path fill="#aec6cf" stroke="grey" d="M266,-68C266,-68 12,-68 12,-68 6,-68 0,-62 0,-56 0,-56 0,-12 0,-12 0,-6 6,0 12,0 12,0 266,0 266,0 272,0 278,-6 278,-12 278,-12 278,-56 278,-56 278,-62 272,-68 266,-68"/>
<text text-anchor="middle" x="139" y="-52.8" font-family="Helvetica,sans-Serif" font-size="14.00" fill="#343541">1. Strengthening Backend Knowledge</text>
<text text-anchor="middle" x="139" y="-37.8" font-family="Helvetica,sans-Serif" font-size="14.00" fill="#343541">&#45; APIs, microservices</text>
<text text-anchor="middle" x="139" y="-22.8" font-family="Helvetica,sans-Serif" font-size="14.00" fill="#343541">&#45; SQL/NoSQL</text>
<text text-anchor="middle" x="139" y="-7.8" font-family="Helvetica,sans-Serif" font-size="14.00" fill="#343541">&#45; Docker, Cloud deployment</text>
</g>
<!-- DatabaseManagement -->
<g id="node2" class="node">
<title>DatabaseManagement</title>
<path fill="#b4d7a8" stroke="grey" d="M497,-68C497,-68 326,-68 326,-68 320,-68 314,-62 314,-56 314,-56 314,-12 314,-12 314,-6 320,0 326,0 326,0 497,0 497,0 503,0 509,-6 509,-12 509,-12 509,-56 509,-56 509,-62 503,-68 497,-68"/>
<text text-anchor="middle" x="411.5" y="-52.8" font-family="Helvetica,sans-Serif" font-size="14.00" fill="#343541">2. Database Management</text>
<text text-anchor="middle" x="411.5" y="-37.8" font-family="Helvetica,sans-Serif" font-size="14.00" fill="#343541">&#45; Advanced SQL</text>
<text text-anchor="middle" x="411.5" y="-22.8" font-family="Helvetica,sans-Serif" font-size="14.00" fill="#343541">&#45; NoSQL</text>
<text text-anchor="middle" x="411.5" y="-7.8" font-family="Helvetica,sans-Serif" font-size="14.00" fill="#343541">&#45; Data Warehousing</text>
</g>
<!-- BackendKnowledge&#45;&gt;DatabaseManagement -->
<g id="edge1" class="edge">
<title>BackendKnowledge&#45;&gt;DatabaseManagement</title>
<path fill="none" stroke="#aaaaaa" d="M278.02,-34C286.64,-34 295.23,-34 303.67,-34"/>
<polygon fill="#aaaaaa" stroke="#aaaaaa" points="303.89,-37.5 313.89,-34 303.89,-30.5 303.89,-37.5"/>
</g>
<!-- BigDataProcessing -->
<g id="node3" class="node">
<title>BigDataProcessing</title>
<path fill="#fdfd96" stroke="grey" d="M706,-68C706,-68 557,-68 557,-68 551,-68 545,-62 545,-56 545,-56 545,-12 545,-12 545,-6 551,0 557,0 557,0 706,0 706,0 712,0 718,-6 718,-12 718,-12 718,-56 718,-56 718,-62 712,-68 706,-68"/>
<text text-anchor="middle" x="631.5" y="-52.8" font-family="Helvetica,sans-Serif" font-size="14.00" fill="#343541">3. Big Data Processing</text>
<text text-anchor="middle" x="631.5" y="-37.8" font-family="Helvetica,sans-Serif" font-size="14.00" fill="#343541">&#45; Hadoop</text>
<text text-anchor="middle" x="631.5" y="-22.8" font-family="Helvetica,sans-Serif" font-size="14.00" fill="#343541">&#45; Spark</text>
<text text-anchor="middle" x="631.5" y="-7.8" font-family="Helvetica,sans-Serif" font-size="14.00" fill="#343541">&#45; Kafka, Airflow</text>
</g>
<!-- DatabaseManagement&#45;&gt;BigDataProcessing -->
<g id="edge2" class="edge">
<title>DatabaseManagement&#45;&gt;BigDataProcessing</title>
<path fill="none" stroke="#aaaaaa" d="M509.07,-34C517.67,-34 526.36,-34 534.95,-34"/>
<polygon fill="#aaaaaa" stroke="#aaaaaa" points="534.97,-37.5 544.97,-34 534.97,-30.5 534.97,-37.5"/>
</g>
<!-- ETLPipelines -->
<g id="node4" class="node">
<title>ETLPipelines</title>
<path fill="#cdb4db" stroke="grey" d="M921,-68C921,-68 766,-68 766,-68 760,-68 754,-62 754,-56 754,-56 754,-12 754,-12 754,-6 760,0 766,0 766,0 921,0 921,0 927,0 933,-6 933,-12 933,-12 933,-56 933,-56 933,-62 927,-68 921,-68"/>
<text text-anchor="middle" x="843.5" y="-52.8" font-family="Helvetica,sans-Serif" font-size="14.00" fill="#343541">4. ETL Pipelines</text>
<text text-anchor="middle" x="843.5" y="-37.8" font-family="Helvetica,sans-Serif" font-size="14.00" fill="#343541">&#45; Apache NiFi</text>
<text text-anchor="middle" x="843.5" y="-22.8" font-family="Helvetica,sans-Serif" font-size="14.00" fill="#343541">&#45; Talend</text>
<text text-anchor="middle" x="843.5" y="-7.8" font-family="Helvetica,sans-Serif" font-size="14.00" fill="#343541">&#45; Python/Bash scripting</text>
</g>
<!-- BigDataProcessing&#45;&gt;ETLPipelines -->
<g id="edge3" class="edge">
<title>BigDataProcessing&#45;&gt;ETLPipelines</title>
<path fill="none" stroke="#aaaaaa" d="M718.22,-34C726.7,-34 735.35,-34 743.94,-34"/>
<polygon fill="#aaaaaa" stroke="#aaaaaa" points="743.99,-37.5 753.99,-34 743.99,-30.5 743.99,-37.5"/>
</g>
<!-- DataProgramming -->
<g id="node5" class="node">
<title>DataProgramming</title>
<path fill="#aec6cf" stroke="grey" d="M1163,-68C1163,-68 981,-68 981,-68 975,-68 969,-62 969,-56 969,-56 969,-12 969,-12 969,-6 975,0 981,0 981,0 1163,0 1163,0 1169,0 1175,-6 1175,-12 1175,-12 1175,-56 1175,-56 1175,-62 1169,-68 1163,-68"/>
<text text-anchor="middle" x="1072" y="-52.8" font-family="Helvetica,sans-Serif" font-size="14.00" fill="#343541">5. Data Programming Skills</text>
<text text-anchor="middle" x="1072" y="-37.8" font-family="Helvetica,sans-Serif" font-size="14.00" fill="#343541">&#45; Python</text>
<text text-anchor="middle" x="1072" y="-22.8" font-family="Helvetica,sans-Serif" font-size="14.00" fill="#343541">&#45; Scala</text>
<text text-anchor="middle" x="1072" y="-7.8" font-family="Helvetica,sans-Serif" font-size="14.00" fill="#343541">&#45; Advanced SQL</text>
</g>
<!-- ETLPipelines&#45;&gt;DataProgramming -->
<g id="edge4" class="edge">
<title>ETLPipelines&#45;&gt;DataProgramming</title>
<path fill="none" stroke="#aaaaaa" d="M933.04,-34C941.52,-34 950.18,-34 958.84,-34"/>
<polygon fill="#aaaaaa" stroke="#aaaaaa" points="958.99,-37.5 968.99,-34 958.99,-30.5 958.99,-37.5"/>
</g>
<!-- DataInfrastructure -->
<g id="node6" class="node">
<title>DataInfrastructure</title>
<path fill="#fed8b1" stroke="grey" d="M1461,-60.5C1461,-60.5 1223,-60.5 1223,-60.5 1217,-60.5 1211,-54.5 1211,-48.5 1211,-48.5 1211,-19.5 1211,-19.5 1211,-13.5 1217,-7.5 1223,-7.5 1223,-7.5 1461,-7.5 1461,-7.5 1467,-7.5 1473,-13.5 1473,-19.5 1473,-19.5 1473,-48.5 1473,-48.5 1473,-54.5 1467,-60.5 1461,-60.5"/>
<text text-anchor="middle" x="1342" y="-45.3" font-family="Helvetica,sans-Serif" font-size="14.00" fill="#343541">6. Data Infrastructure</text>
<text text-anchor="middle" x="1342" y="-30.3" font-family="Helvetica,sans-Serif" font-size="14.00" fill="#343541">&#45; Cloud Services (AWS, GCP, Azure)</text>
<text text-anchor="middle" x="1342" y="-15.3" font-family="Helvetica,sans-Serif" font-size="14.00" fill="#343541">&#45; S3, Redshift, BigQuery</text>
</g>
<!-- DataProgramming&#45;&gt;DataInfrastructure -->
<g id="edge5" class="edge">
<title>DataProgramming&#45;&gt;DataInfrastructure</title>
<path fill="none" stroke="#aaaaaa" d="M1175.08,-34C1183.48,-34 1192.06,-34 1200.67,-34"/>
<polygon fill="#aaaaaa" stroke="#aaaaaa" points="1200.79,-37.5 1210.79,-34 1200.79,-30.5 1200.79,-37.5"/>
</g>
<!-- DataGovernance -->
<g id="node7" class="node">
<title>DataGovernance</title>
<path fill="#f4c2c2" stroke="grey" d="M1721,-60.5C1721,-60.5 1521,-60.5 1521,-60.5 1515,-60.5 1509,-54.5 1509,-48.5 1509,-48.5 1509,-19.5 1509,-19.5 1509,-13.5 1515,-7.5 1521,-7.5 1521,-7.5 1721,-7.5 1721,-7.5 1727,-7.5 1733,-13.5 1733,-19.5 1733,-19.5 1733,-48.5 1733,-48.5 1733,-54.5 1727,-60.5 1721,-60.5"/>
<text text-anchor="middle" x="1621" y="-45.3" font-family="Helvetica,sans-Serif" font-size="14.00" fill="#343541">7. Data Governance &amp; Quality</text>
<text text-anchor="middle" x="1621" y="-30.3" font-family="Helvetica,sans-Serif" font-size="14.00" fill="#343541">&#45; Data Quality Frameworks</text>
<text text-anchor="middle" x="1621" y="-15.3" font-family="Helvetica,sans-Serif" font-size="14.00" fill="#343541">&#45; Data Security</text>
</g>
<!-- DataInfrastructure&#45;&gt;DataGovernance -->
<g id="edge6" class="edge">
<title>DataInfrastructure&#45;&gt;DataGovernance</title>
<path fill="none" stroke="#aaaaaa" d="M1473.39,-34C1481.77,-34 1490.19,-34 1498.52,-34"/>
<polygon fill="#aaaaaa" stroke="#aaaaaa" points="1498.64,-37.5 1508.64,-34 1498.64,-30.5 1498.64,-37.5"/>
</g>
<!-- DataVisualization -->
<g id="node8" class="node">
<title>DataVisualization</title>
<path fill="#b4d7a8" stroke="grey" d="M1915,-60.5C1915,-60.5 1781,-60.5 1781,-60.5 1775,-60.5 1769,-54.5 1769,-48.5 1769,-48.5 1769,-19.5 1769,-19.5 1769,-13.5 1775,-7.5 1781,-7.5 1781,-7.5 1915,-7.5 1915,-7.5 1921,-7.5 1927,-13.5 1927,-19.5 1927,-19.5 1927,-48.5 1927,-48.5 1927,-54.5 1921,-60.5 1915,-60.5"/>
<text text-anchor="middle" x="1848" y="-45.3" font-family="Helvetica,sans-Serif" font-size="14.00" fill="#343541">8. Data Visualization</text>
<text text-anchor="middle" x="1848" y="-30.3" font-family="Helvetica,sans-Serif" font-size="14.00" fill="#343541">&#45; Tableau, Power BI</text>
<text text-anchor="middle" x="1848" y="-15.3" font-family="Helvetica,sans-Serif" font-size="14.00" fill="#343541">&#45; Metabase</text>
</g>
<!-- DataGovernance&#45;&gt;DataVisualization -->
<g id="edge7" class="edge">
<title>DataGovernance&#45;&gt;DataVisualization</title>
<path fill="none" stroke="#aaaaaa" d="M1733.18,-34C1741.76,-34 1750.35,-34 1758.75,-34"/>
<polygon fill="#aaaaaa" stroke="#aaaaaa" points="1758.89,-37.5 1768.89,-34 1758.89,-30.5 1758.89,-37.5"/>
</g>
<!-- RealTimeProcessing -->
<g id="node9" class="node">
<title>RealTimeProcessing</title>
<path fill="#fdfd96" stroke="grey" d="M2166,-60.5C2166,-60.5 1975,-60.5 1975,-60.5 1969,-60.5 1963,-54.5 1963,-48.5 1963,-48.5 1963,-19.5 1963,-19.5 1963,-13.5 1969,-7.5 1975,-7.5 1975,-7.5 2166,-7.5 2166,-7.5 2172,-7.5 2178,-13.5 2178,-19.5 2178,-19.5 2178,-48.5 2178,-48.5 2178,-54.5 2172,-60.5 2166,-60.5"/>
<text text-anchor="middle" x="2070.5" y="-45.3" font-family="Helvetica,sans-Serif" font-size="14.00" fill="#343541">9. Real&#45;time Data Processing</text>
<text text-anchor="middle" x="2070.5" y="-30.3" font-family="Helvetica,sans-Serif" font-size="14.00" fill="#343541">&#45; Kafka Streams</text>
<text text-anchor="middle" x="2070.5" y="-15.3" font-family="Helvetica,sans-Serif" font-size="14.00" fill="#343541">&#45; Flink, Storm</text>
</g>
<!-- DataVisualization&#45;&gt;RealTimeProcessing -->
<g id="edge8" class="edge">
<title>DataVisualization&#45;&gt;RealTimeProcessing</title>
<path fill="none" stroke="#aaaaaa" d="M1927.05,-34C1935.42,-34 1944.06,-34 1952.76,-34"/>
<polygon fill="#aaaaaa" stroke="#aaaaaa" points="1952.98,-37.5 1962.98,-34 1952.98,-30.5 1952.98,-37.5"/>
</g>
<!-- Projects -->
<g id="node10" class="node">
<title>Projects</title>
<path fill="#cdb4db" stroke="grey" d="M2396,-68C2396,-68 2226,-68 2226,-68 2220,-68 2214,-62 2214,-56 2214,-56 2214,-12 2214,-12 2214,-6 2220,0 2226,0 2226,0 2396,0 2396,0 2402,0 2408,-6 2408,-12 2408,-12 2408,-56 2408,-56 2408,-62 2402,-68 2396,-68"/>
<text text-anchor="middle" x="2311" y="-52.8" font-family="Helvetica,sans-Serif" font-size="14.00" fill="#343541">10. Hands&#45;on Projects</text>
<text text-anchor="middle" x="2311" y="-37.8" font-family="Helvetica,sans-Serif" font-size="14.00" fill="#343541">&#45; ETL Pipelines</text>
<text text-anchor="middle" x="2311" y="-22.8" font-family="Helvetica,sans-Serif" font-size="14.00" fill="#343541">&#45; Big Data Projects</text>
<text text-anchor="middle" x="2311" y="-7.8" font-family="Helvetica,sans-Serif" font-size="14.00" fill="#343541">&#45; Real&#45;time Data Pipelines</text>
</g>
<!-- RealTimeProcessing&#45;&gt;Projects -->
<g id="edge9" class="edge">
<title>RealTimeProcessing&#45;&gt;Projects</title>
<path fill="none" stroke="#aaaaaa" d="M2178.19,-34C2186.66,-34 2195.21,-34 2203.67,-34"/>
<polygon fill="#aaaaaa" stroke="#aaaaaa" points="2203.94,-37.5 2213.94,-34 2203.94,-30.5 2203.94,-37.5"/>
</g>
</g>
</svg>
