<?xml version="1.0" encoding="UTF-8" standalone="no"?>
<!DOCTYPE svg PUBLIC "-//W3C//DTD SVG 1.1//EN"
 "http://www.w3.org/Graphics/SVG/1.1/DTD/svg11.dtd">
<!-- Generated by graphviz version 2.43.0 (0)
 -->
<!-- Title: FrontEndLearningPath Pages: 1 -->
<svg width="423pt" height="98pt"
 viewBox="0.00 0.00 423.00 98.00" xmlns="http://www.w3.org/2000/svg" xmlns:xlink="http://www.w3.org/1999/xlink">
<g id="graph0" class="graph" transform="scale(1 1) rotate(0) translate(4 94)">
<title>FrontEndLearningPath</title>
<polygon fill="#343541" stroke="transparent" points="-4,4 -4,-94 419,-94 419,4 -4,4"/>
<!-- HTMLCSS -->
<g id="node1" class="node">
<title>HTMLCSS</title>
<path fill="#aec6cf" stroke="grey" d="M75,-36C75,-36 12,-36 12,-36 6,-36 0,-30 0,-24 0,-24 0,-12 0,-12 0,-6 6,0 12,0 12,0 75,0 75,0 81,0 87,-6 87,-12 87,-12 87,-24 87,-24 87,-30 81,-36 75,-36"/>
<text text-anchor="middle" x="43.5" y="-14.3" font-family="Helvetica,sans-Serif" font-size="14.00" fill="#343541">HTML/CSS</text>
</g>
<!-- SassTailwindCSS -->
<g id="node3" class="node">
<title>SassTailwindCSS</title>
<path fill="#fed8b1" stroke="grey" d="M305,-36C305,-36 135,-36 135,-36 129,-36 123,-30 123,-24 123,-24 123,-12 123,-12 123,-6 129,0 135,0 135,0 305,0 305,0 311,0 317,-6 317,-12 317,-12 317,-24 317,-24 317,-30 311,-36 305,-36"/>
<text text-anchor="middle" x="220" y="-14.3" font-family="Helvetica,sans-Serif" font-size="14.00" fill="#343541">Sass/TailwindCSS/DaisyUI</text>
</g>
<!-- HTMLCSS&#45;&gt;SassTailwindCSS -->
<g id="edge1" class="edge">
<title>HTMLCSS&#45;&gt;SassTailwindCSS</title>
<path fill="none" stroke="#aaaaaa" d="M87.19,-18C95.1,-18 103.69,-18 112.56,-18"/>
<polygon fill="#aaaaaa" stroke="#aaaaaa" points="112.66,-21.5 122.66,-18 112.66,-14.5 112.66,-21.5"/>
</g>
<!-- JavaScript -->
<g id="node2" class="node">
<title>JavaScript</title>
<path fill="#aec6cf" stroke="grey" d="M74.5,-90C74.5,-90 12.5,-90 12.5,-90 6.5,-90 0.5,-84 0.5,-78 0.5,-78 0.5,-66 0.5,-66 0.5,-60 6.5,-54 12.5,-54 12.5,-54 74.5,-54 74.5,-54 80.5,-54 86.5,-60 86.5,-66 86.5,-66 86.5,-78 86.5,-78 86.5,-84 80.5,-90 74.5,-90"/>
<text text-anchor="middle" x="43.5" y="-68.3" font-family="Helvetica,sans-Serif" font-size="14.00" fill="#343541">JavaScript</text>
</g>
<!-- ReactJS -->
<g id="node4" class="node">
<title>ReactJS</title>
<path fill="#cdb4db" stroke="grey" d="M242,-90C242,-90 198,-90 198,-90 192,-90 186,-84 186,-78 186,-78 186,-66 186,-66 186,-60 192,-54 198,-54 198,-54 242,-54 242,-54 248,-54 254,-60 254,-66 254,-66 254,-78 254,-78 254,-84 248,-90 242,-90"/>
<text text-anchor="middle" x="220" y="-68.3" font-family="Helvetica,sans-Serif" font-size="14.00" fill="#343541">ReactJS</text>
</g>
<!-- JavaScript&#45;&gt;ReactJS -->
<g id="edge2" class="edge">
<title>JavaScript&#45;&gt;ReactJS</title>
<path fill="none" stroke="#aaaaaa" d="M86.74,-72C113.75,-72 148.69,-72 175.87,-72"/>
<polygon fill="#aaaaaa" stroke="#aaaaaa" points="175.88,-75.5 185.88,-72 175.88,-68.5 175.88,-75.5"/>
</g>
<!-- NextJS -->
<g id="node5" class="node">
<title>NextJS</title>
<path fill="#cdb4db" stroke="grey" d="M403,-90C403,-90 365,-90 365,-90 359,-90 353,-84 353,-78 353,-78 353,-66 353,-66 353,-60 359,-54 365,-54 365,-54 403,-54 403,-54 409,-54 415,-60 415,-66 415,-66 415,-78 415,-78 415,-84 409,-90 403,-90"/>
<text text-anchor="middle" x="384" y="-68.3" font-family="Helvetica,sans-Serif" font-size="14.00" fill="#343541">NextJS</text>
</g>
<!-- ReactJS&#45;&gt;NextJS -->
<g id="edge3" class="edge">
<title>ReactJS&#45;&gt;NextJS</title>
<path fill="none" stroke="#aaaaaa" d="M254.17,-72C279.87,-72 315.56,-72 342.86,-72"/>
<polygon fill="#aaaaaa" stroke="#aaaaaa" points="342.88,-75.5 352.88,-72 342.88,-68.5 342.88,-75.5"/>
</g>
</g>
</svg>
